<?xml version="1.0" encoding="UTF-8"?>
<svg width="24px" height="24px" viewBox="0 0 24 24" version="1.1" xmlns="http://www.w3.org/2000/svg" xmlns:xlink="http://www.w3.org/1999/xlink">
    <title>owner@1x</title>
    <defs>
        <rect id="path-1" x="0" y="0" width="24" height="24"></rect>
        <polygon id="path-3" points="0.117741176 0.114117647 5.46070588 0.114117647 5.46070588 9.88235294 0.117741176 9.88235294"></polygon>
    </defs>
    <g id="PWA" stroke="none" stroke-width="1" fill="none" fill-rule="evenodd">
        <g id="ADPV-V1.1-" transform="translate(-25.000000, -473.000000)">
            <g id="owner" transform="translate(25.000000, 473.000000)">
                <mask id="mask-2" fill="white">
                    <use xlink:href="#path-1"></use>
                </mask>
                <g id="Mask"></g>
                <g mask="url(#mask-2)">
                    <g transform="translate(4.000000, 2.000000)">
                        <path d="M10.4781647,4.68705882 C10.4781647,6.49317647 9.00898824,7.96235294 7.20287059,7.96235294 C5.39675294,7.96235294 3.92757647,6.49317647 3.92757647,4.68705882 C3.92757647,2.88094118 5.39675294,1.41176471 7.20287059,1.41176471 C9.00898824,1.41176471 10.4781647,2.88094118 10.4781647,4.68705882 Z M7.20287059,0 C4.6184,0 2.51581176,2.10258824 2.51581176,4.68705882 C2.51581176,6.32282353 3.35910588,7.76329412 4.63251765,8.60235294 C1.92804706,9.64329412 4.70588235e-05,12.2621176 4.70588235e-05,15.3289412 L4.70588235e-05,16.0348235 L10.7280471,16.0348235 L11.1741647,15.3322353 L10.7280471,14.6230588 L1.45463529,14.6230588 C1.80381176,11.7567059 4.25275294,9.52894118 7.21228235,9.52894118 C8.51581176,9.52894118 9.4744,9.71905882 10.5002824,10.5181176 L11.3082824,10.2922353 L11.3191059,9.40988235 C10.7478118,8.96470588 10.4447529,8.84611765 9.78592941,8.59435294 C11.0522824,7.75435294 11.8899294,6.31717647 11.8899294,4.68705882 C11.8899294,2.10258824 9.78734118,0 7.20287059,0 Z" id="Fill-1" fill="#002F34"></path>
                        <g id="Group-5" stroke-width="1" fill="none" transform="translate(10.352941, 9.940094)">
                            <mask id="mask-4" fill="white">
                                <use xlink:href="#path-3"></use>
                            </mask>
                            <g id="Clip-4"></g>
                            <path d="M2.78927059,1.52588235 C3.48385882,1.52588235 4.04903529,2.09105882 4.04903529,2.78611765 C4.04903529,3.48023529 3.48385882,4.04541176 2.78927059,4.04541176 C2.09468235,4.04541176 1.52950588,3.48023529 1.52950588,2.78611765 C1.52950588,2.09105882 2.09468235,1.52588235 2.78927059,1.52588235 L2.78927059,1.52588235 Z M3.7648,5.27035294 C4.75632941,4.87976471 5.4608,3.91411765 5.4608,2.78611765 C5.4608,1.31270588 4.26221176,0.114117647 2.78927059,0.114117647 C1.31632941,0.114117647 0.117741176,1.31270588 0.117741176,2.78611765 C0.117741176,3.94 0.855152941,4.92305882 1.88244706,5.29576471 L1.88244706,9.16258824 L2.83774118,9.88258824 L3.7648,9.16258824 L3.7648,6.94705882 L3.37327059,6.52447059 L3.76432941,6.10235294 L3.7648,5.27035294 Z" id="Fill-3" fill="#002F34" mask="url(#mask-4)"></path>
                        </g>
                        <path d="M13.6128,12.7260706 C13.6128,12.9858353 13.4019765,13.1966588 13.1422118,13.1966588 C12.8819765,13.1966588 12.6716235,12.9858353 12.6716235,12.7260706 C12.6716235,12.4658353 12.8819765,12.2554824 13.1422118,12.2554824 C13.4019765,12.2554824 13.6128,12.4658353 13.6128,12.7260706" id="Fill-6" fill="#FFFFFF"></path>
                    </g>
                </g>
            </g>
        </g>
    </g>
</svg>